# xmcd
#
# Track frame offsets:
#	150
#	11450
#	27256
#	38158
#	50167
#	62120
#	69563
#	79213
#	92227
#	103231
#	112701
#	127982
#	139002
#	142277
#	150085
#	159658
#	171266
#	183240
#	194863
#	203516
#	214119
#	228958
#	240091
#	252189
#	265368
#
# Disc length: 3735 seconds
#
# Revision: 0
# Processed by: cddbd v1.5.2PL0 Copyright (c) Steve Scherf et al.
# Submitted via: EasyCDDAExtractor 12.0.1.1
#
DISCID=5c0e9519
DTITLE=Ernest Tubb - There's A Little Bit Of Everything In Texas
DYEAR=2000
DGENRE=Country
TTITLE0=Walking The Floor Over You
TTITLE1=Honky Tonk Heart
TTITLE2=This Troubled Mind Of Mine
TTITLE3=(I'm Gonna Make My Home) A Million Miles From Here
TTITLE4=You're The Only Good Thing (That's Happened To Me)
TTITLE5=There's A Little Bit Of Everything In Texas
TTITLE6=I'll Get Along Somehow, Introduced By Jim Reeves
TTITLE7=You're Breaking My Heart
TTITLE8=If I Never Have Anything
TTITLE9=When The World Has Turned You Down
TTITLE10=Driftwood On The River, Conversation With Carolina Cotton
TTITLE11=My Hillbilly Baby
TTITLE12=Introductory Conversation With T. Texas Tyler
TTITLE13=Don't Look Now (But Your Broken Heart Is Showing)
TTITLE14=Two Glasses Joe
TTITLE15=I Dreamed Of An Old Love Affair
TTITLE16=Answer The Phone
TTITLE17=Tomorrow Never Comes
TTITLE18=Stand By Me
TTITLE19=It's Been So Long, Darling
TTITLE20=Jealous Loving Heart
TTITLE21=Don't Forbid Me
TTITLE22=My Treasure
TTITLE23=Jimmy Rodgers Last Blue Yodel, Conversation With Faron Young
TTITLE24=Will You Be Satisfied That Way, Closing Remarks By Faron Young
EXTD=
EXTT0=
EXTT1=
EXTT2=
EXTT3=
EXTT4=
EXTT5=
EXTT6=
EXTT7=
EXTT8=
EXTT9=
EXTT10=
EXTT11=
EXTT12=
EXTT13=
EXTT14=
EXTT15=
EXTT16=
EXTT17=
EXTT18=
EXTT19=
EXTT20=
EXTT21=
EXTT22=
EXTT23=
EXTT24=
PLAYORDER=
